<svg width="100" height="100" viewBox="0 0 266.6666666666667 274.4406047019254" class="looka-1j8o68f"><defs id="SvgjsDefs1488"></defs><g id="SvgjsG1489" featurekey="e7LhAk-0" transform="matrix(16.666666666666668,0,0,16.666666666666668,-50,-33.333333333333336)" fill="#000000"><title xmlns="http://www.w3.org/2000/svg">App</title><desc xmlns="http://www.w3.org/2000/svg">Created with Sketch.</desc><g xmlns="http://www.w3.org/2000/svg" stroke="none" stroke-width="1" fill="none" fill-rule="evenodd"><g transform="translate(-50.000000, -260.000000)" fill="#000000"><g transform="translate(20.000000, 260.000000)"><path d="M42.7638935,3 L36.9931023,3 C34.7873299,3 33,4.78777278 33,6.99310226 L33,13.0068977 C33,15.2126701 34.7877728,17 36.9931023,17 L43.0068977,17 C45.2126701,17 47,15.2122272 47,13.0068977 L47,7.23610651 C47.6137494,6.68678595 48,5.88849981 48,5 C48,3.34314575 46.6568542,2 45,2 C44.1115002,2 43.313214,2.38625064 42.7638935,3 Z M42,5 L36.999615,5 C35.8874333,5 35,5.89525812 35,6.99961498 L35,13.000385 C35,14.1125667 35.8952581,15 36.999615,15 L43.000385,15 C44.1125667,15 45,14.1047419 45,13.000385 L45,8 C43.3431458,8 42,6.65685425 42,5 Z M45,7 C46.1045695,7 47,6.1045695 47,5 C47,3.8954305 46.1045695,3 45,3 C43.8954305,3 43,3.8954305 43,5 C43,6.1045695 43.8954305,7 45,7 Z"></path></g></g></g></g></svg><svg width="289.09412567735114" height="297.52187499999997" viewBox="0 0 266.6666666666667 274.4406047019254" class="looka-1j8o68f"><defs id="SvgjsDefs1488"></defs><g id="SvgjsG1489" featurekey="e7LhAk-0" transform="matrix(16.666666666666668,0,0,16.666666666666668,-50,-33.333333333333336)" fill="#000000"><title xmlns="http://www.w3.org/2000/svg">App</title><desc xmlns="http://www.w3.org/2000/svg">Created with Sketch.</desc><g xmlns="http://www.w3.org/2000/svg" stroke="none" stroke-width="1" fill="none" fill-rule="evenodd"><g transform="translate(-50.000000, -260.000000)" fill="#000000"><g transform="translate(20.000000, 260.000000)"><path d="M42.7638935,3 L36.9931023,3 C34.7873299,3 33,4.78777278 33,6.99310226 L33,13.0068977 C33,15.2126701 34.7877728,17 36.9931023,17 L43.0068977,17 C45.2126701,17 47,15.2122272 47,13.0068977 L47,7.23610651 C47.6137494,6.68678595 48,5.88849981 48,5 C48,3.34314575 46.6568542,2 45,2 C44.1115002,2 43.313214,2.38625064 42.7638935,3 Z M42,5 L36.999615,5 C35.8874333,5 35,5.89525812 35,6.99961498 L35,13.000385 C35,14.1125667 35.8952581,15 36.999615,15 L43.000385,15 C44.1125667,15 45,14.1047419 45,13.000385 L45,8 C43.3431458,8 42,6.65685425 42,5 Z M45,7 C46.1045695,7 47,6.1045695 47,5 C47,3.8954305 46.1045695,3 45,3 C43.8954305,3 43,3.8954305 43,5 C43,6.1045695 43.8954305,7 45,7 Z"></path></g></g></g></g></svg>